<?xml version="1.0" standalone="no"?><!DOCTYPE svg PUBLIC "-//W3C//DTD SVG 1.1//EN" "http://www.w3.org/Graphics/SVG/1.1/DTD/svg11.dtd"><svg t="1549092876469" class="icon" style="" viewBox="0 0 1031 1024" version="1.1" xmlns="http://www.w3.org/2000/svg" p-id="1150" xmlns:xlink="http://www.w3.org/1999/xlink" width="201.3671875" height="200"><defs><style type="text/css"></style></defs><path d="M884.99 435.648c-87.106 17.6-86.399 67.265-85.444 90.563-0.067 27.002 1.47 52.095 44.412 78.586 44.479 30.718 186.177 8.576 186.177 8.576v39.237c-6.656 1.212-200.316 18.813-278.464-22.214-80.13-48.576-55.108-132.927-52.993-140.032 2.172-7.167 19.458-67.585 100.795-81.982 100.61-18.88 232.386-5.118 232.386-5.118v39.23c-49.206-15.102-146.87-6.846-146.87-6.846zM662.91 550.08c24.576 27.456 7.228 79.804-44.413 94.015-51.775 14.143-128.066 18.111-259.713 8.514v-37.632s139.454 20.155 184.578 6.78c45.052-13.25 44.99-60.036 15.362-71.744-26.368-12.797-45.568-13.633-93.953-13.633h-70.15v-30.723s117.632 3.07 138.365-5.118c20.8-8.194 32.833-17.534 32.513-37.632-0.253-19.97-11.713-27.008-34.175-30.723-22.4-3.648-123.133-2.75-167.42 8.576h-1.662v-37.56s156.605-12.476 227.194 1.667c84.928 4.35 113.984 89.278-6.78 114.433-0.067-0.005 55.614 3.385 80.253 30.78z m-422.016-11.966H88.83v119.552H0v-259.59h88.834v107.648H240.9V398.078h88.835v259.65h-88.84V538.115z" p-id="1151" fill="#d81e06"></path></svg>